<svg width="302" height="302" viewBox="0 0 302 302" fill="none" xmlns="http://www.w3.org/2000/svg">
<path d="M24.764 44.394C25.368 60.098 26.576 64.93 30.2 64.93C33.522 64.93 35.032 61.004 35.636 50.736L36.542 36.542L50.736 35.636C61.004 35.032 64.93 33.522 64.93 30.2C64.93 26.576 60.098 25.368 44.394 24.764L23.858 23.858L24.764 44.394Z" fill="white"/>
<path d="M237.07 27.18C233.446 32.918 238.882 36.24 252.17 36.24H265.458L266.364 50.434C266.968 61.004 268.478 64.93 271.8 64.93C275.424 64.93 276.632 60.4 277.236 44.394L278.142 24.16H258.512C247.64 24.16 237.976 25.368 237.07 27.18Z" fill="white"/>
<path d="M108.418 47.112C83.654 54.662 48.32 92.11 57.38 100.868C60.098 103.284 62.514 102.076 67.648 95.13C89.09 64.93 112.646 52.85 147.074 54.964C161.268 55.568 167.308 54.662 168.214 52.246C171.536 42.582 133.484 39.26 108.418 47.112Z" fill="white"/>
<path d="M119.29 64.628C75.802 78.218 51.038 122.612 63.118 165.194L65.836 174.858L45.904 175.764C30.2 176.368 25.67 177.576 25.67 181.2C25.67 185.126 41.676 185.73 151 185.73C260.324 185.73 276.33 185.126 276.33 181.2C276.33 177.878 272.102 176.368 259.72 175.764C250.66 175.16 241.6 173.348 239.486 171.838C237.07 169.724 234.05 169.724 229.822 171.838C226.5 173.65 221.366 175.16 218.346 175.16C214.722 175.16 216.534 172.744 224.386 167.61C235.56 159.758 239.184 151 231.03 151C228.614 151 220.762 155.228 213.212 160.362C204.756 166.402 194.79 170.328 186.032 171.234C172.14 173.046 171.536 172.442 158.55 158.55C146.47 145.564 138.92 143.148 138.92 151.604C138.92 153.416 142.242 159.456 146.772 165.194C152.208 172.442 153.114 175.16 149.792 175.16C143.148 175.16 132.88 160.362 132.88 150.698C132.88 141.94 139.524 132.88 146.168 132.88C148.282 132.88 152.208 137.712 154.926 143.45C162.174 158.55 172.14 163.986 189.958 162.476C205.058 160.966 215.326 155.228 224.99 142.242C230.426 134.994 230.426 134.692 221.97 118.082C198.716 73.386 158.248 52.246 119.29 64.628ZM167.61 78.218C189.656 88.184 221.668 130.464 213.816 138.316C211.098 141.034 207.776 137.41 200.83 124.424C183.314 93.016 154.624 78.822 125.934 87.58C108.116 92.714 97.848 100.868 88.486 117.176C81.238 129.256 80.03 134.692 80.03 153.114C80.03 178.18 76.708 178.482 73.688 153.416C70.668 128.954 76.708 110.532 92.11 94.828C112.948 73.99 143.752 67.346 167.61 78.218ZM159.154 99.962C176.066 106.304 198.112 134.994 195.696 147.376C194.79 150.698 192.374 147.678 188.448 138.92C169.12 96.338 127.142 90.6 108.116 127.746C102.076 139.826 101.774 156.436 107.21 169.724C108.72 173.952 107.814 175.16 102.982 175.16C90.902 175.16 86.674 151 95.13 130.464C106.908 102.982 133.484 90.298 159.154 99.962ZM159.154 119.29C166.704 124.424 178.18 142.242 178.18 148.282C177.878 152.51 170.026 144.356 159.154 128.652C143.45 106.002 112.948 136.504 123.216 164.288C128.048 176.67 125.33 177.878 119.29 165.798C104.492 137.41 134.692 102.076 159.154 119.29Z" fill="white"/>
<path d="M80.03 202.34C75.5 209.89 101.472 233.144 128.048 244.922C152.208 255.492 193.28 256.398 193.28 246.13C193.28 243.714 192.374 241.6 191.166 241.6C189.656 241.6 179.086 240.996 167.61 240.694C142.544 239.788 120.498 230.426 98.754 211.4C83.956 198.414 82.748 197.81 80.03 202.34Z" fill="white"/>
<path d="M110.23 202.642C106.908 207.474 119.894 219.252 136.806 226.802C163.08 238.58 223.48 234.956 223.48 221.668C223.48 216.534 222.876 216.534 197.206 221.064C170.328 225.594 152.51 222.574 131.37 209.89C111.74 197.81 112.646 198.112 110.23 202.642Z" fill="white"/>
<path d="M146.47 202.34C139.524 213.514 175.16 221.366 197.81 213.816C213.514 208.682 214.42 200.226 199.32 202.038C182.408 204.454 158.852 203.85 153.718 201.434C150.698 199.924 147.678 200.226 146.47 202.34Z" fill="white"/>
<path d="M26.274 237.372C25.066 238.58 24.16 248.244 24.16 258.814V278.142L44.696 277.236C60.4 276.632 64.93 275.424 64.93 271.8C64.93 268.478 61.004 266.968 50.736 266.364L36.542 265.458L35.636 251.566C34.73 238.278 31.106 232.842 26.274 237.372Z" fill="white"/>
<path d="M267.874 237.372C266.666 238.58 265.76 245.526 265.76 252.472V265.458L251.566 266.364C240.996 266.968 237.07 268.478 237.07 271.8C237.07 275.424 241.902 276.632 257.606 277.236L278.142 278.142L277.236 257.908C276.33 239.184 273.008 232.238 267.874 237.372Z" fill="white"/>
</svg>
